<?xml version="1.0" encoding="utf-8"?>
<!-- Generator: Adobe Illustrator 18.0.0, SVG Export Plug-In . SVG Version: 6.00 Build 0)  -->
<!DOCTYPE svg PUBLIC "-//W3C//DTD SVG 1.1//EN" "http://www.w3.org/Graphics/SVG/1.1/DTD/svg11.dtd">
<svg version="1.1" id="Layer_1" xmlns="http://www.w3.org/2000/svg" xmlns:xlink="http://www.w3.org/1999/xlink" x="0px" y="0px"
	 viewBox="0 0 64 64" enable-background="new 0 0 64 64" xml:space="preserve">
<g>
	<g>
		<g>
			<path fill="#ED6969" d="M32,0c17.7,0,32,14.3,32,32S49.7,64,32,64S0,49.7,0,32S14.3,0,32,0z"/>
		</g>
	</g>
	<g>
		<g>
			<path fill="#FFF4D7" d="M45.8,12.7c-2.2-2.2-5.8-2.2-8.1,0c-2.1,2.1-2.2,5.5-0.3,7.8l-16.9,17c-2.2-2.1-5.7-2-7.9,0.2
				c-2.2,2.2-2.2,5.9,0,8.1c1.1,1.1,2.4,1.6,3.8,1.7c0,1.4,0.6,2.8,1.7,3.9c2.2,2.2,5.8,2.2,8.1,0c2.1-2.1,2.2-5.5,0.3-7.8l16.9-17
				c2.2,2.1,5.7,2,7.9-0.2c2.2-2.2,2.2-5.9,0-8.1c-1.1-1.1-2.4-1.6-3.8-1.7C47.4,15.1,46.9,13.8,45.8,12.7z"/>
		</g>
	</g>
	<g>
		<g>
			<g>
				<path fill="#FFFFFF" d="M14,41.6c2.2-2.2,4.8-1.4,7,0.7L42.2,21c-1.9-2.3-2.1-5.3,0-7.4C43,12.7,44,12.2,45,12
					c-2.2-1.5-5.3-1.3-7.3,0.7c-2.1,2.1-2.2,5.5-0.3,7.8l-16.9,17c-2.2-2.1-5.7-2-7.9,0.2c-2.1,2.1-2.2,5.5-0.3,7.8
					C12.4,44,13,42.7,14,41.6z"/>
			</g>
		</g>
	</g>
</g>
</svg>
