<?xml version="1.0" encoding="utf-8"?>
<!-- Generator: Adobe Illustrator 18.0.0, SVG Export Plug-In . SVG Version: 6.00 Build 0)  -->
<!DOCTYPE svg PUBLIC "-//W3C//DTD SVG 1.1//EN" "http://www.w3.org/Graphics/SVG/1.1/DTD/svg11.dtd">
<svg version="1.1" id="Layer_1" xmlns="http://www.w3.org/2000/svg" xmlns:xlink="http://www.w3.org/1999/xlink" x="0px" y="0px"
	 viewBox="0 0 64 64" enable-background="new 0 0 64 64" xml:space="preserve">
<g>
	<g>
		<g>
			<circle fill="#E5E5E5" cx="30" cy="34" r="30"/>
		</g>
	</g>
	<g>
		<g>
			<path fill="#F94646" d="M45,34c0-8.3-6.7-15-15-15c-8.3,0-15,6.7-15,15c0,8.3,6.7,15,15,15C38.3,49,45,42.3,45,34z M53,34
				c0,12.7-10.3,23-23,23S7,46.7,7,34s10.3-23,23-23S53,21.3,53,34z"/>
		</g>
	</g>
	<g>
		<g>
			<path fill="#FCCD49" d="M30,19c8.3,0,15,6.7,15,15c0,8.3-6.7,15-15,15c-8.3,0-15-6.7-15-15C15,25.7,21.7,19,30,19z"/>
		</g>
	</g>
	<g>
		<g>
			<path fill="#F94646" d="M30,27c3.9,0,7,3.1,7,7c0,3.9-3.1,7-7,7c-3.9,0-7-3.1-7-7C23,30.1,26.1,27,30,27z"/>
		</g>
	</g>
	<g>
		<g>
			<polygon fill="#9948F7" points="55,9 55,0 52,3 51.3,7.3 50,5 46.2,8.8 45,10 45,16.6 45,19 47.4,19 54.5,19 55.4,18.1 64,9 			
				"/>
		</g>
	</g>
	<g>
		<g>
			<g>
				<path fill="#383849" d="M30,35c-0.3,0-0.5-0.1-0.7-0.3c-0.4-0.4-0.4-1,0-1.4l28-28c0.4-0.4,1-0.4,1.4,0s0.4,1,0,1.4l-28,28
					C30.5,34.9,30.3,35,30,35z"/>
			</g>
		</g>
	</g>
</g>
</svg>
