<?xml version="1.0" encoding="utf-8"?>
<!-- Generator: Adobe Illustrator 18.0.0, SVG Export Plug-In . SVG Version: 6.00 Build 0)  -->
<!DOCTYPE svg PUBLIC "-//W3C//DTD SVG 1.1//EN" "http://www.w3.org/Graphics/SVG/1.1/DTD/svg11.dtd">
<svg version="1.1" id="Layer_1" xmlns="http://www.w3.org/2000/svg" xmlns:xlink="http://www.w3.org/1999/xlink" x="0px" y="0px"
	 viewBox="0 0 64 64" enable-background="new 0 0 64 64" xml:space="preserve">
<g>
	<g>
		<path fill="#EA4C89" d="M32,0c17.7,0,32,14.3,32,32S49.7,64,32,64S0,49.7,0,32S14.3,0,32,0z"/>
	</g>
	<g>
		<path fill-rule="evenodd" clip-rule="evenodd" fill="#FFFFFF" d="M32,51c-10.5,0-19-8.5-19-19c0-10.5,8.5-19,19-19
			c10.5,0,19,8.5,19,19C51,42.5,42.5,51,32,51L32,51z M48,34.6c-0.6-0.2-5-1.5-10.1-0.7c2.1,5.8,3,10.6,3.2,11.6
			C44.7,43,47.3,39.1,48,34.6L48,34.6z M38.3,47c-0.2-1.4-1.2-6.4-3.5-12.3c0,0-0.1,0-0.1,0c-9.2,3.2-12.4,9.5-12.7,10.1
			c2.8,2.1,6.2,3.4,10,3.4C34.2,48.3,36.4,47.8,38.3,47L38.3,47z M19.9,42.9c0.4-0.6,4.8-8,13.2-10.7c0.2-0.1,0.4-0.1,0.6-0.2
			c-0.4-0.9-0.9-1.8-1.3-2.8c-8.1,2.4-16,2.3-16.7,2.3c0,0.2,0,0.3,0,0.5C15.8,36.2,17.4,40,19.9,42.9L19.9,42.9z M16.1,28.7
			c0.7,0,7.4,0,15-2c-2.7-4.8-5.6-8.8-6-9.4C20.6,19.5,17.2,23.7,16.1,28.7L16.1,28.7z M28.2,16.2c0.4,0.6,3.4,4.6,6.1,9.5
			c5.8-2.2,8.2-5.4,8.5-5.9c-2.9-2.5-6.6-4.1-10.8-4.1C30.7,15.8,29.4,16,28.2,16.2L28.2,16.2z M44.6,21.8c-0.3,0.5-3.1,3.9-9.1,6.4
			c0.4,0.8,0.7,1.6,1.1,2.4c0.1,0.3,0.2,0.6,0.3,0.8c5.4-0.7,10.8,0.4,11.3,0.5C48.2,28,46.8,24.5,44.6,21.8L44.6,21.8z"/>
	</g>
</g>
</svg>
