<svg height="512" viewBox="0 0 128 128" width="512" xmlns="http://www.w3.org/2000/svg"><g id="Circle_Grid" data-name="Circle Grid"><circle cx="64" cy="64" fill="#029bc5" r="64"/></g><g id="icon"><g fill="#2f4859"><rect height="1.509" rx=".201" transform="matrix(.493 -.87 .87 .493 21.597 102.493)" width="1.759" x="97.896" y="31.954"/><rect height="1.509" rx=".201" transform="matrix(.493 -.87 .87 .493 17.8 102.444)" width="1.759" x="95.956" y="35.188"/><rect height="1.509" rx=".201" transform="matrix(.87 -.493 .493 .87 -1.73 50.324)" width="1.759" x="93.629" y="27.687"/><rect height="1.509" rx=".201" transform="matrix(.87 -.493 .493 .87 -3.108 48.981)" width="1.759" x="90.395" y="29.627"/></g><path d="m61.905 69.192s-1.991 4.727.995 6.592 6.405-1.306 7.338-1.99 2.363.622.249 3.732-6.53 3.669-8.334 5.721a15.354 15.354 0 0 0 -3.853 8.582c-.43 4.945-5.908 13-13.744 10.759s-17.288-13.806-18.532-19.4 3.118-12.243 10.012-13.5c5.616-1.02 11.629-4.042 13.5-7.9s4.782-11.874 10.814-10.444c0 0 .622.995-1.8 4.167s-2.052 7.774 1.928 8.52z" fill="#f7be56"/><path d="m35.792 94.375c-4.418-4.418-7.277-9.192-7.818-11.624a8.565 8.565 0 0 1 1.43-6.49 10.732 10.732 0 0 1 6.988-4.6c5.776-1.05 12.636-4.238 14.938-9 .2-.41.408-.865.631-1.351 1.641-3.561 3.321-6.806 5.57-7.811-.161.239-.35.5-.573.8-2.513 3.285-2.579 7.591-.153 10.017a5.9 5.9 0 0 0 2.039 1.326l.962 3.471c-.508 1.554-1.333 5.2 1.075 7.611a5.352 5.352 0 0 0 .958.759 6 6 0 0 0 5.328.481 21.6 21.6 0 0 1 -2.506 1.347 12.264 12.264 0 0 0 -4.012 2.619 17.432 17.432 0 0 0 -4.345 9.729 11.992 11.992 0 0 1 -4.843 7.928 7.247 7.247 0 0 1 -6.358 1.08c-2.728-.782-6.035-3.016-9.311-6.292z" fill="#fcd462"/><path d="m95.9 37.849 3.511-6.157a1.676 1.676 0 0 0 -.271-2.015l-1.486-1.487a1.676 1.676 0 0 0 -2.015-.271l-6.157 3.511a1.679 1.679 0 0 0 -.626.626l-3.243 5.688-37.75 36.322 5.4 5.4 36.322-37.75 5.688-3.243a1.679 1.679 0 0 0 .627-.624z" fill="#3a556a"/><path d="m38.867 90.576 50.028-50.028 5.421-3.614.057.085-5.413 3.607-50.02 50.022z" fill="#ebf0f3"/><path d="m36.683 88.391 50.028-50.028 3.601-5.405.085.057-3.607 5.413-50.035 50.036z" fill="#ebf0f3"/><path d="m26.515 62.198h77.128v.102h-77.128z" fill="#ebf0f3" transform="matrix(.707 -.707 .707 .707 -24.956 64.25)"/><path d="m34.465 87.36h8.477v2.529h-8.477z" fill="#3a556a" transform="matrix(.707 .707 -.707 .707 74.003 -1.41)"/></g></svg>