<?xml version="1.0" encoding="utf-8"?>
<!-- Generator: Adobe Illustrator 18.0.0, SVG Export Plug-In . SVG Version: 6.00 Build 0)  -->
<!DOCTYPE svg PUBLIC "-//W3C//DTD SVG 1.1//EN" "http://www.w3.org/Graphics/SVG/1.1/DTD/svg11.dtd">
<svg version="1.1" id="Layer_1" xmlns="http://www.w3.org/2000/svg" xmlns:xlink="http://www.w3.org/1999/xlink" x="0px" y="0px"
	 viewBox="0 0 64 64" enable-background="new 0 0 64 64" xml:space="preserve">
<g>
	<g>
		<g>
			<path fill="#F9DC5F" d="M32,0c17.7,0,32,14.3,32,32S49.7,64,32,64S0,49.7,0,32S14.3,0,32,0z"/>
		</g>
	</g>
	<g>
		<g>
			<rect x="39.2" y="41" fill="#DB8675" width="16.4" height="2"/>
		</g>
	</g>
	<g>
		<g>
			<rect x="39.2" y="46" fill="#DB8675" width="16.4" height="2"/>
		</g>
	</g>
	<g>
		<g>
			<rect x="13.2" y="47" fill="#9B6A57" width="32" height="4"/>
		</g>
	</g>
	<g>
		<g>
			<rect x="39.1" y="16.7" fill="#F7ECDA" width="6" height="9"/>
		</g>
	</g>
	<g>
		<g>
			<path fill="#F7ECDA" d="M29.2,13l16,16v18h-32V29L29.2,13z"/>
		</g>
	</g>
	<g>
		<g>
			<polygon fill="#9B6A57" points="29.1,9 7,31.3 9.7,33.9 29.2,14 48.5,33.9 51.2,31.3 			"/>
		</g>
	</g>
	<g>
		<g>
			<rect x="38.1" y="14.7" fill="#9B6A57" width="8" height="3"/>
		</g>
	</g>
	<g>
		<g>
			<rect x="31" y="35" fill="#FFFFFF" width="11" height="15"/>
		</g>
	</g>
	<g>
		<g>
			<rect x="32" y="41" fill="#CCA783" width="9" height="6.7"/>
		</g>
	</g>
	<g>
		<g>
			<rect x="30" y="49" fill="#CCA783" width="13" height="2.8"/>
		</g>
	</g>
	<g>
		<g>
			<rect x="32" y="36" fill="#CCA783" width="9" height="4"/>
		</g>
	</g>
	<g>
		<g>
			<rect x="17" y="33" fill="#FFFFFF" width="11" height="9"/>
		</g>
	</g>
	<g>
		<g>
			<rect x="18" y="34" fill="#7EC6F2" width="4" height="3"/>
		</g>
	</g>
	<g>
		<g>
			<rect x="23" y="34" fill="#7EC6F2" width="4" height="3"/>
		</g>
	</g>
	<g>
		<g>
			<rect x="23" y="38" fill="#7EC6F2" width="4" height="3"/>
		</g>
	</g>
	<g>
		<g>
			<rect x="18" y="38" fill="#7EC6F2" width="4" height="3"/>
		</g>
	</g>
	<g>
		<g>
			<rect x="16" y="42" fill="#CCA783" width="13" height="2"/>
		</g>
	</g>
	<g>
		<g>
			<circle fill="#FFFFFF" cx="29.7" cy="24.5" r="4.5"/>
		</g>
	</g>
	<g>
		<g>
			<circle fill="#7EC6F2" cx="29.7" cy="24.5" r="3.4"/>
		</g>
	</g>
	<g>
		<g>
			<rect x="29.2" y="21" fill="#FFFFFF" width="1" height="7"/>
		</g>
	</g>
	<g>
		<g>
			<rect x="26.2" y="24" fill="#FFFFFF" width="7" height="1"/>
		</g>
	</g>
	<g>
		<g>
			<path fill="#AF7161" d="M49.6,51h-2V39c0-0.6,0.4-1,1-1l0,0c0.6,0,1,0.4,1,1V51z"/>
		</g>
	</g>
	<g>
		<g>
			<path fill="#AF7161" d="M53.6,51h-2V39c0-0.6,0.4-1,1-1l0,0c0.6,0,1,0.4,1,1V51z"/>
		</g>
	</g>
</g>
</svg>
